<svg width="21" height="19" viewBox="0 0 21 19" fill="none" xmlns="http://www.w3.org/2000/svg">
<path d="M18.5769 2.47826H15.7783L14.4022 0.367609C14.3284 0.254591 14.2286 0.161916 14.1115 0.0977938C13.9944 0.0336715 13.8636 8.15812e-05 13.7308 0H7.26923C7.13639 8.15812e-05 7.00563 0.0336715 6.88851 0.0977938C6.7714 0.161916 6.67156 0.254591 6.59784 0.367609L5.22072 2.47826H2.42308C1.78044 2.47826 1.16412 2.73936 0.709703 3.20413C0.255288 3.66889 0 4.29925 0 4.95652V16.5217C0 17.179 0.255288 17.8094 0.709703 18.2741C1.16412 18.7389 1.78044 19 2.42308 19H18.5769C19.2196 19 19.8359 18.7389 20.2903 18.2741C20.7447 17.8094 21 17.179 21 16.5217V4.95652C21 4.29925 20.7447 3.66889 20.2903 3.20413C19.8359 2.73936 19.2196 2.47826 18.5769 2.47826ZM14.1346 10.3261C14.1346 11.0613 13.9214 11.78 13.5221 12.3914C13.1227 13.0027 12.555 13.4791 11.8909 13.7605C11.2268 14.0419 10.496 14.1155 9.79092 13.972C9.08587 13.8286 8.43825 13.4746 7.92994 12.9547C7.42163 12.4348 7.07546 11.7724 6.93522 11.0513C6.79498 10.3302 6.86696 9.58277 7.14205 8.9035C7.41715 8.22424 7.88301 7.64366 8.48072 7.23519C9.07843 6.82672 9.78114 6.6087 10.5 6.6087C11.464 6.6087 12.3884 7.00035 13.0701 7.69749C13.7517 8.39464 14.1346 9.34017 14.1346 10.3261Z" fill="white"/>
</svg>
