<svg width="247" height="218" viewBox="0 0 247 218" fill="none" xmlns="http://www.w3.org/2000/svg">
<g filter="url(#filter0_d_823_1097)">
<circle cx="138.272" cy="106.211" r="98.9782" transform="rotate(2.85737 138.272 106.211)" fill="#E16D6D"/>
<path d="M156.788 100.733C136.516 133.902 101.619 121.494 101.619 121.494" stroke="black" stroke-width="3.06004" stroke-linecap="round"/>
<path fill-rule="evenodd" clip-rule="evenodd" d="M72.862 159.994C73.3021 162.06 71.984 164.091 69.9178 164.532C51.4441 168.467 35.3367 158.635 24.3446 148.701C18.7748 143.668 14.3071 138.425 11.2364 134.453C9.69749 132.462 8.50068 130.779 7.68309 129.584C7.27411 128.987 6.95946 128.511 6.74379 128.179C6.63594 128.013 6.5528 127.883 6.49494 127.792C6.46601 127.747 6.4434 127.711 6.42717 127.685L6.40763 127.654L6.40147 127.644L6.3993 127.64C6.39846 127.639 6.39773 127.638 9.64843 125.622L6.39773 127.638C5.28436 125.842 5.83719 123.484 7.6325 122.371C9.42718 121.258 11.7841 121.81 12.8979 123.604C12.898 123.604 12.8981 123.604 12.8982 123.604L12.8988 123.605L12.8991 123.606L12.9079 123.62L12.9543 123.693C12.9976 123.762 13.0657 123.868 13.1579 124.01C13.3423 124.294 13.6231 124.719 13.9957 125.263C14.7411 126.352 15.8514 127.914 17.289 129.774C20.1712 133.503 24.3339 138.381 29.4737 143.026C39.9009 152.448 53.5297 160.201 68.324 157.049C70.3902 156.609 72.4219 157.927 72.862 159.994Z" fill="black"/>
<g filter="url(#filter1_d_823_1097)">
<path fill-rule="evenodd" clip-rule="evenodd" d="M186.994 124.465C197.436 117.696 210.843 105.698 222.209 84.8247C223.22 82.9694 225.543 82.2844 227.398 83.2947C229.253 84.305 229.938 86.628 228.928 88.4833C216.911 110.55 202.593 123.47 191.155 130.884C185.445 134.585 180.472 136.903 176.885 138.304C175.092 139.005 173.644 139.477 172.624 139.778C172.114 139.929 171.71 140.037 171.423 140.11C171.279 140.146 171.165 140.174 171.081 140.193C171.039 140.203 171.004 140.211 170.978 140.217L170.944 140.224L170.931 140.227L170.926 140.228C170.923 140.229 170.921 140.229 170.117 136.49L170.921 140.229C168.856 140.673 166.822 139.359 166.377 137.294C165.934 135.232 167.243 133.201 169.303 132.752C169.303 132.752 169.304 132.752 169.304 132.752C169.305 132.752 169.306 132.752 169.307 132.751L169.309 132.751L169.339 132.744C169.378 132.735 169.446 132.719 169.543 132.694C169.737 132.645 170.045 132.563 170.457 132.441C171.282 132.198 172.523 131.795 174.101 131.179C177.258 129.945 181.763 127.855 186.994 124.465Z" fill="black"/>
</g>
</g>
<path d="M93.9243 83.0685L95.8746 91.7315" stroke="black" stroke-width="7.6501" stroke-linecap="round"/>
<path d="M134.835 69.1765L137.941 77.4956" stroke="black" stroke-width="7.6501" stroke-linecap="round"/>
<defs>
<filter id="filter0_d_823_1097" x="2.30371" y="6.77134" width="244.587" height="211.119" filterUnits="userSpaceOnUse" color-interpolation-filters="sRGB">
<feFlood flood-opacity="0" result="BackgroundImageFix"/>
<feColorMatrix in="SourceAlpha" type="matrix" values="0 0 0 0 0 0 0 0 0 0 0 0 0 0 0 0 0 0 127 0" result="hardAlpha"/>
<feOffset dx="3.06004" dy="6.12008"/>
<feGaussianBlur stdDeviation="3.28954"/>
<feComposite in2="hardAlpha" operator="out"/>
<feColorMatrix type="matrix" values="0 0 0 0 0 0 0 0 0 0 0 0 0 0 0 0 0 0 0.25 0"/>
<feBlend mode="normal" in2="BackgroundImageFix" result="effect1_dropShadow_823_1097"/>
<feBlend mode="normal" in="SourceGraphic" in2="effect1_dropShadow_823_1097" result="shape"/>
</filter>
<filter id="filter1_d_823_1097" x="161.701" y="81.2982" width="72.2836" height="66.6674" filterUnits="userSpaceOnUse" color-interpolation-filters="sRGB">
<feFlood flood-opacity="0" result="BackgroundImageFix"/>
<feColorMatrix in="SourceAlpha" type="matrix" values="0 0 0 0 0 0 0 0 0 0 0 0 0 0 0 0 0 0 127 0" result="hardAlpha"/>
<feOffset dy="3.06004"/>
<feGaussianBlur stdDeviation="2.29503"/>
<feComposite in2="hardAlpha" operator="out"/>
<feColorMatrix type="matrix" values="0 0 0 0 0 0 0 0 0 0 0 0 0 0 0 0 0 0 0.25 0"/>
<feBlend mode="normal" in2="BackgroundImageFix" result="effect1_dropShadow_823_1097"/>
<feBlend mode="normal" in="SourceGraphic" in2="effect1_dropShadow_823_1097" result="shape"/>
</filter>
</defs>
</svg>
