<svg width="149" height="129" viewBox="0 0 149 129" fill="none" xmlns="http://www.w3.org/2000/svg">
<circle cx="84.5603" cy="64.7694" r="60.7848" transform="rotate(2.85737 84.5603 64.7694)" fill="#E16D6D"/>
<path fill-rule="evenodd" clip-rule="evenodd" d="M74.2358 74.4831C80.9093 73.8642 89.0863 70.8034 95.1299 60.915C95.4005 60.4722 95.9789 60.3327 96.4217 60.6033C96.8644 60.8739 97.004 61.4523 96.7334 61.895C90.3272 72.3766 81.5638 75.6908 74.4094 76.3543C70.8477 76.6847 67.6921 76.3591 65.4278 75.9521C64.2943 75.7484 63.3804 75.5235 62.7459 75.3483C62.4285 75.2606 62.1808 75.1853 62.0101 75.131C61.9247 75.1039 61.8586 75.0821 61.8126 75.0666L61.7589 75.0482L61.7436 75.0429L61.7372 75.0407C61.7366 75.0405 61.7361 75.0403 62.0509 74.1549L61.7372 75.0407C61.2483 74.8668 60.9917 74.3291 61.1656 73.8402C61.3393 73.3514 61.8762 73.096 62.365 73.2694M62.365 73.2694L62.374 73.2725L62.4129 73.2858C62.4488 73.2979 62.5045 73.3163 62.5791 73.34C62.7284 73.3875 62.9532 73.4559 63.2462 73.5369C63.8324 73.6988 64.69 73.9101 65.7602 74.1025C67.9032 74.4877 70.8836 74.794 74.2358 74.4831" fill="black"/>
<path fill-rule="evenodd" clip-rule="evenodd" d="M44.3899 97.7987C44.6602 99.0676 43.8507 100.315 42.5818 100.586C31.2367 103.002 21.3448 96.9642 14.5942 90.8639C11.1737 87.7729 8.42999 84.5532 6.54416 82.1134C5.59911 80.8908 4.86412 79.8571 4.36202 79.1237C4.11085 78.7568 3.91762 78.4645 3.78517 78.2608C3.71894 78.1589 3.66788 78.0791 3.63235 78.0231L3.59073 77.9572L3.57873 77.938L3.57495 77.9319L3.57361 77.9298C3.5731 77.9289 3.57265 77.9282 5.56898 76.6902L3.57265 77.9282C2.88891 76.8257 3.22841 75.3776 4.33095 74.6939C5.43311 74.0104 6.88054 74.3494 7.56458 75.451C7.5646 75.451 7.56462 75.451 7.56464 75.4511C7.56466 75.4511 7.56469 75.4512 7.56472 75.4512L7.56511 75.4518L7.56531 75.4522L7.57071 75.4608L7.59919 75.5059C7.6258 75.5478 7.6676 75.6132 7.72422 75.7003C7.83749 75.8746 8.00995 76.1356 8.23872 76.4697C8.6965 77.1384 9.37837 78.098 10.2613 79.2402C12.0313 81.5301 14.5877 84.5258 17.7442 87.3782C24.1477 93.1649 32.5175 97.9259 41.603 95.9906C42.8719 95.7203 44.1197 96.5298 44.3899 97.7987Z" fill="black"/>
<path fill-rule="evenodd" clip-rule="evenodd" d="M114.481 75.9796C120.894 71.8229 129.127 64.4547 136.108 51.6357C136.728 50.4963 138.155 50.0756 139.294 50.6961C140.434 51.3165 140.854 52.7431 140.234 53.8825C132.854 67.4343 124.061 75.3688 117.037 79.922C113.53 82.1947 110.476 83.6181 108.273 84.4787C107.172 84.909 106.283 85.1988 105.656 85.3838C105.343 85.4763 105.095 85.5427 104.919 85.5874C104.831 85.6098 104.76 85.6267 104.709 85.6388L104.645 85.6533L104.625 85.6579L104.617 85.6596L104.614 85.6603C104.612 85.6606 104.611 85.6609 104.117 83.3644L104.611 85.6609C103.342 85.9336 102.093 85.1265 101.82 83.8582C101.548 82.592 102.352 81.3448 103.617 81.0692C103.617 81.0691 103.618 81.0689 103.619 81.0688C103.619 81.0686 103.62 81.0685 103.621 81.0683L103.639 81.0641C103.663 81.0585 103.705 81.0484 103.764 81.0333C103.884 81.0031 104.073 80.9528 104.326 80.878C104.832 80.7285 105.594 80.4814 106.564 80.1027C108.502 79.3452 111.269 78.0618 114.481 75.9796Z" fill="black"/>
<path fill-rule="evenodd" clip-rule="evenodd" d="M56.8089 48.2653C58.0746 47.9804 59.3316 48.7754 59.6165 50.0411L60.8142 55.3613C61.0991 56.6269 60.3041 57.8839 59.0384 58.1689C57.7728 58.4538 56.5157 57.6588 56.2308 56.3931L55.0331 51.0729C54.7482 49.8073 55.5432 48.5502 56.8089 48.2653Z" fill="black"/>
<path fill-rule="evenodd" clip-rule="evenodd" d="M81.6274 39.8251C82.8428 39.3714 84.1959 39.9888 84.6497 41.2042L86.5569 46.3132C87.0106 47.5286 86.3931 48.8817 85.1777 49.3354C83.9623 49.7892 82.6092 49.1717 82.1555 47.9563L80.2482 42.8473C79.7945 41.6319 80.412 40.2788 81.6274 39.8251Z" fill="black"/>
</svg>
